<mxfile host="app.diagrams.net" agent="Mozilla/5.0 (X11; Ubuntu; Linux x86_64; rv:135.0) Gecko/20100101 Firefox/135.0" version="26.0.16">
  <diagram name="Page-1" id="58cdce13-f638-feb5-8d6f-7d28b1aa9fa0">
    <mxGraphModel dx="1434" dy="766" grid="1" gridSize="5" guides="1" tooltips="1" connect="1" arrows="1" fold="1" page="1" pageScale="1" pageWidth="1100" pageHeight="850" background="none" math="0" shadow="0">
      <root>
        <mxCell id="0" />
        <mxCell id="1" parent="0" />
        <mxCell id="S5aGi3HF0J0l1EgHDcWB-17" value="&lt;span&gt;stage_0_3&lt;/span&gt;" style="rounded=0;whiteSpace=wrap;html=1;fillColor=default;verticalAlign=top;fontFamily=NewsGotT;fontStyle=1;fontSize=14;" parent="1" vertex="1">
          <mxGeometry x="220" y="141" width="160" height="129" as="geometry" />
        </mxCell>
        <mxCell id="S5aGi3HF0J0l1EgHDcWB-3" value="fft_dp" style="rounded=0;whiteSpace=wrap;html=1;fontFamily=NewsGotT;" parent="1" vertex="1">
          <mxGeometry x="220" y="189" width="160" height="41" as="geometry" />
        </mxCell>
        <mxCell id="S5aGi3HF0J0l1EgHDcWB-5" value="" style="endArrow=none;html=1;rounded=0;entryX=0;entryY=0.25;entryDx=0;entryDy=0;endFill=0;fontFamily=NewsGotT;" parent="1" edge="1">
          <mxGeometry width="50" height="50" relative="1" as="geometry">
            <mxPoint x="120" y="100" as="sourcePoint" />
            <mxPoint x="220" y="156" as="targetPoint" />
            <Array as="points">
              <mxPoint x="200" y="100" />
              <mxPoint x="200" y="156" />
            </Array>
          </mxGeometry>
        </mxCell>
        <mxCell id="S5aGi3HF0J0l1EgHDcWB-8" value="clk" style="edgeLabel;html=1;align=right;verticalAlign=middle;resizable=0;points=[];fontFamily=NewsGotT;" parent="S5aGi3HF0J0l1EgHDcWB-5" vertex="1" connectable="0">
          <mxGeometry x="-0.2438" y="1" relative="1" as="geometry">
            <mxPoint x="-64" y="1" as="offset" />
          </mxGeometry>
        </mxCell>
        <mxCell id="S5aGi3HF0J0l1EgHDcWB-6" value="" style="triangle;whiteSpace=wrap;html=1;fontFamily=NewsGotT;" parent="1" vertex="1">
          <mxGeometry x="220" y="151" width="10" height="10" as="geometry" />
        </mxCell>
        <mxCell id="S5aGi3HF0J0l1EgHDcWB-19" value="fft_cu" style="rounded=0;whiteSpace=wrap;html=1;fontFamily=NewsGotT;" parent="1" vertex="1">
          <mxGeometry x="220" y="230" width="160" height="40" as="geometry" />
        </mxCell>
        <mxCell id="S5aGi3HF0J0l1EgHDcWB-20" value="start" style="text;html=1;align=center;verticalAlign=middle;resizable=0;points=[];autosize=1;strokeColor=none;fillColor=none;spacing=-5;fontSize=11;fontFamily=NewsGotT;" parent="1" vertex="1">
          <mxGeometry x="220" y="233" width="25" height="15" as="geometry" />
        </mxCell>
        <mxCell id="S5aGi3HF0J0l1EgHDcWB-22" value="dl_busy" style="text;html=1;align=center;verticalAlign=middle;resizable=0;points=[];autosize=1;strokeColor=none;fillColor=none;spacing=-5;fontSize=11;fontFamily=NewsGotT;" parent="1" vertex="1">
          <mxGeometry x="220" y="248" width="40" height="15" as="geometry" />
        </mxCell>
        <mxCell id="S5aGi3HF0J0l1EgHDcWB-23" value="x_re" style="text;html=1;align=center;verticalAlign=middle;resizable=0;points=[];autosize=1;strokeColor=none;fillColor=none;spacing=-5;fontSize=11;fontFamily=NewsGotT;" parent="1" vertex="1">
          <mxGeometry x="220" y="193" width="25" height="15" as="geometry" />
        </mxCell>
        <mxCell id="S5aGi3HF0J0l1EgHDcWB-24" value="x_im" style="text;html=1;align=center;verticalAlign=middle;resizable=0;points=[];autosize=1;strokeColor=none;fillColor=none;spacing=-5;fontSize=11;fontFamily=NewsGotT;" parent="1" vertex="1">
          <mxGeometry x="220" y="208" width="25" height="15" as="geometry" />
        </mxCell>
        <mxCell id="S5aGi3HF0J0l1EgHDcWB-25" value="fft_ready" style="text;html=1;align=center;verticalAlign=middle;resizable=0;points=[];autosize=1;strokeColor=none;fillColor=none;spacing=-5;fontSize=11;fontFamily=NewsGotT;" parent="1" vertex="1">
          <mxGeometry x="335" y="233" width="45" height="15" as="geometry" />
        </mxCell>
        <mxCell id="S5aGi3HF0J0l1EgHDcWB-95" value="busy_o" style="edgeStyle=orthogonalEdgeStyle;rounded=0;orthogonalLoop=1;jettySize=auto;html=1;fontFamily=NewsGotT;align=left;" parent="1" source="S5aGi3HF0J0l1EgHDcWB-26" edge="1">
          <mxGeometry x="1" y="-5" relative="1" as="geometry">
            <mxPoint x="920" y="310" as="targetPoint" />
            <Array as="points">
              <mxPoint x="400" y="255" />
              <mxPoint x="400" y="310" />
            </Array>
            <mxPoint x="5" y="-5" as="offset" />
          </mxGeometry>
        </mxCell>
        <mxCell id="S5aGi3HF0J0l1EgHDcWB-26" value="busy" style="text;html=1;align=center;verticalAlign=middle;resizable=0;points=[];autosize=1;strokeColor=none;fillColor=none;spacing=-5;fontSize=11;fontFamily=NewsGotT;" parent="1" vertex="1">
          <mxGeometry x="355" y="248" width="25" height="15" as="geometry" />
        </mxCell>
        <mxCell id="S5aGi3HF0J0l1EgHDcWB-29" value="X_re" style="text;html=1;align=center;verticalAlign=middle;resizable=0;points=[];autosize=1;strokeColor=none;fillColor=none;spacing=-5;fontSize=11;fontFamily=NewsGotT;" parent="1" vertex="1">
          <mxGeometry x="355" y="193" width="25" height="15" as="geometry" />
        </mxCell>
        <mxCell id="S5aGi3HF0J0l1EgHDcWB-30" value="X_im" style="text;html=1;align=center;verticalAlign=middle;resizable=0;points=[];autosize=1;strokeColor=none;fillColor=none;spacing=-5;fontSize=11;fontFamily=NewsGotT;" parent="1" vertex="1">
          <mxGeometry x="350" y="208" width="30" height="15" as="geometry" />
        </mxCell>
        <mxCell id="S5aGi3HF0J0l1EgHDcWB-31" value="rstn" style="text;html=1;align=center;verticalAlign=middle;resizable=0;points=[];autosize=1;strokeColor=none;fillColor=none;spacing=-5;fontSize=11;fontFamily=NewsGotT;" parent="1" vertex="1">
          <mxGeometry x="225" y="168" width="20" height="15" as="geometry" />
        </mxCell>
        <mxCell id="S5aGi3HF0J0l1EgHDcWB-35" value="" style="endArrow=classic;html=1;rounded=0;entryX=-0.002;entryY=0.281;entryDx=0;entryDy=0;entryPerimeter=0;fontFamily=NewsGotT;" parent="1" target="S5aGi3HF0J0l1EgHDcWB-17" edge="1">
          <mxGeometry width="50" height="50" relative="1" as="geometry">
            <mxPoint x="120" y="120" as="sourcePoint" />
            <mxPoint x="270" y="150" as="targetPoint" />
            <Array as="points">
              <mxPoint x="190" y="120" />
              <mxPoint x="190" y="177" />
            </Array>
          </mxGeometry>
        </mxCell>
        <mxCell id="S5aGi3HF0J0l1EgHDcWB-56" value="rstn" style="edgeLabel;html=1;align=right;verticalAlign=middle;resizable=0;points=[];fontFamily=NewsGotT;" parent="S5aGi3HF0J0l1EgHDcWB-35" vertex="1" connectable="0">
          <mxGeometry x="-0.9324" relative="1" as="geometry">
            <mxPoint x="-10" as="offset" />
          </mxGeometry>
        </mxCell>
        <mxCell id="S5aGi3HF0J0l1EgHDcWB-36" value="" style="endArrow=classic;html=1;rounded=0;startArrow=oval;startFill=1;startSize=3;entryX=-0.001;entryY=0.279;entryDx=0;entryDy=0;entryPerimeter=0;fontFamily=NewsGotT;" parent="1" target="S5aGi3HF0J0l1EgHDcWB-37" edge="1">
          <mxGeometry width="50" height="50" relative="1" as="geometry">
            <mxPoint x="190" y="120" as="sourcePoint" />
            <mxPoint x="320" y="120" as="targetPoint" />
            <Array as="points">
              <mxPoint x="420" y="120" />
              <mxPoint x="420" y="177" />
            </Array>
          </mxGeometry>
        </mxCell>
        <mxCell id="S5aGi3HF0J0l1EgHDcWB-37" value="&lt;b&gt;stage_4_6&lt;/b&gt;" style="rounded=0;whiteSpace=wrap;html=1;fillColor=default;verticalAlign=top;fontFamily=NewsGotT;fontSize=14;" parent="1" vertex="1">
          <mxGeometry x="440" y="141" width="160" height="129" as="geometry" />
        </mxCell>
        <mxCell id="S5aGi3HF0J0l1EgHDcWB-38" value="fft_dp" style="rounded=0;whiteSpace=wrap;html=1;fontFamily=NewsGotT;" parent="1" vertex="1">
          <mxGeometry x="440" y="189" width="160" height="41" as="geometry" />
        </mxCell>
        <mxCell id="S5aGi3HF0J0l1EgHDcWB-39" value="" style="triangle;whiteSpace=wrap;html=1;fontFamily=NewsGotT;" parent="1" vertex="1">
          <mxGeometry x="440" y="151" width="10" height="10" as="geometry" />
        </mxCell>
        <mxCell id="S5aGi3HF0J0l1EgHDcWB-40" value="fft_cu" style="rounded=0;whiteSpace=wrap;html=1;fontFamily=NewsGotT;" parent="1" vertex="1">
          <mxGeometry x="440" y="230" width="160" height="40" as="geometry" />
        </mxCell>
        <mxCell id="S5aGi3HF0J0l1EgHDcWB-41" value="start" style="text;html=1;align=center;verticalAlign=middle;resizable=0;points=[];autosize=1;strokeColor=none;fillColor=none;spacing=-5;fontSize=11;fontFamily=NewsGotT;" parent="1" vertex="1">
          <mxGeometry x="440" y="233" width="25" height="15" as="geometry" />
        </mxCell>
        <mxCell id="S5aGi3HF0J0l1EgHDcWB-42" value="dl_busy" style="text;html=1;align=center;verticalAlign=middle;resizable=0;points=[];autosize=1;strokeColor=none;fillColor=none;spacing=-5;fontSize=11;fontFamily=NewsGotT;" parent="1" vertex="1">
          <mxGeometry x="440" y="248" width="40" height="15" as="geometry" />
        </mxCell>
        <mxCell id="S5aGi3HF0J0l1EgHDcWB-43" value="x_re" style="text;html=1;align=center;verticalAlign=middle;resizable=0;points=[];autosize=1;strokeColor=none;fillColor=none;spacing=-5;fontSize=11;fontFamily=NewsGotT;" parent="1" vertex="1">
          <mxGeometry x="440" y="193" width="25" height="15" as="geometry" />
        </mxCell>
        <mxCell id="S5aGi3HF0J0l1EgHDcWB-44" value="x_im" style="text;html=1;align=center;verticalAlign=middle;resizable=0;points=[];autosize=1;strokeColor=none;fillColor=none;spacing=-5;fontSize=11;fontFamily=NewsGotT;" parent="1" vertex="1">
          <mxGeometry x="440" y="208" width="25" height="15" as="geometry" />
        </mxCell>
        <mxCell id="S5aGi3HF0J0l1EgHDcWB-45" value="fft_ready" style="text;html=1;align=center;verticalAlign=middle;resizable=0;points=[];autosize=1;strokeColor=none;fillColor=none;spacing=-5;fontSize=11;fontFamily=NewsGotT;" parent="1" vertex="1">
          <mxGeometry x="555" y="233" width="45" height="15" as="geometry" />
        </mxCell>
        <mxCell id="S5aGi3HF0J0l1EgHDcWB-46" value="busy" style="text;html=1;align=center;verticalAlign=middle;resizable=0;points=[];autosize=1;strokeColor=none;fillColor=none;spacing=-5;fontSize=11;fontFamily=NewsGotT;" parent="1" vertex="1">
          <mxGeometry x="575" y="248" width="25" height="15" as="geometry" />
        </mxCell>
        <mxCell id="S5aGi3HF0J0l1EgHDcWB-47" value="X_re" style="text;html=1;align=center;verticalAlign=middle;resizable=0;points=[];autosize=1;strokeColor=none;fillColor=none;spacing=-5;fontSize=11;fontFamily=NewsGotT;" parent="1" vertex="1">
          <mxGeometry x="575" y="193" width="25" height="15" as="geometry" />
        </mxCell>
        <mxCell id="S5aGi3HF0J0l1EgHDcWB-48" value="X_im" style="text;html=1;align=center;verticalAlign=middle;resizable=0;points=[];autosize=1;strokeColor=none;fillColor=none;spacing=-5;fontSize=11;fontFamily=NewsGotT;" parent="1" vertex="1">
          <mxGeometry x="570" y="208" width="30" height="15" as="geometry" />
        </mxCell>
        <mxCell id="S5aGi3HF0J0l1EgHDcWB-49" value="rstn" style="text;html=1;align=center;verticalAlign=middle;resizable=0;points=[];autosize=1;strokeColor=none;fillColor=none;spacing=-5;fontSize=11;fontFamily=NewsGotT;" parent="1" vertex="1">
          <mxGeometry x="445" y="168" width="20" height="15" as="geometry" />
        </mxCell>
        <mxCell id="S5aGi3HF0J0l1EgHDcWB-50" value="" style="endArrow=none;html=1;rounded=0;startArrow=oval;startFill=1;startSize=3;entryX=0;entryY=0.5;entryDx=0;entryDy=0;fontFamily=NewsGotT;" parent="1" target="S5aGi3HF0J0l1EgHDcWB-39" edge="1">
          <mxGeometry width="50" height="50" relative="1" as="geometry">
            <mxPoint x="200" y="100" as="sourcePoint" />
            <mxPoint x="320" y="150" as="targetPoint" />
            <Array as="points">
              <mxPoint x="430" y="100" />
              <mxPoint x="430" y="156" />
            </Array>
          </mxGeometry>
        </mxCell>
        <mxCell id="S5aGi3HF0J0l1EgHDcWB-53" style="edgeStyle=orthogonalEdgeStyle;rounded=0;orthogonalLoop=1;jettySize=auto;html=1;entryX=-0.003;entryY=0.501;entryDx=0;entryDy=0;entryPerimeter=0;exitX=0.996;exitY=0.503;exitDx=0;exitDy=0;exitPerimeter=0;fontFamily=NewsGotT;" parent="1" source="S5aGi3HF0J0l1EgHDcWB-25" target="S5aGi3HF0J0l1EgHDcWB-41" edge="1">
          <mxGeometry relative="1" as="geometry">
            <mxPoint x="375" y="241.5" as="sourcePoint" />
            <mxPoint x="435" y="240.5" as="targetPoint" />
            <Array as="points">
              <mxPoint x="420" y="240" />
              <mxPoint x="420" y="240" />
            </Array>
          </mxGeometry>
        </mxCell>
        <mxCell id="S5aGi3HF0J0l1EgHDcWB-57" value="x_re_i[31:0]" style="endArrow=classic;html=1;rounded=0;align=right;entryX=-0.002;entryY=0.496;entryDx=0;entryDy=0;entryPerimeter=0;fontFamily=NewsGotT;" parent="1" target="S5aGi3HF0J0l1EgHDcWB-23" edge="1">
          <mxGeometry x="-1" y="5" width="50" height="50" relative="1" as="geometry">
            <mxPoint x="120" y="200" as="sourcePoint" />
            <mxPoint x="220" y="200" as="targetPoint" />
            <mxPoint x="-5" y="5" as="offset" />
          </mxGeometry>
        </mxCell>
        <mxCell id="S5aGi3HF0J0l1EgHDcWB-58" value="x_im_i[31:0]" style="endArrow=classic;html=1;rounded=0;entryX=0.001;entryY=0.495;entryDx=0;entryDy=0;entryPerimeter=0;align=right;fontFamily=NewsGotT;" parent="1" target="S5aGi3HF0J0l1EgHDcWB-24" edge="1">
          <mxGeometry x="-1" y="5" width="50" height="50" relative="1" as="geometry">
            <mxPoint x="120" y="215" as="sourcePoint" />
            <mxPoint x="220" y="217.83" as="targetPoint" />
            <mxPoint x="-5" y="5" as="offset" />
          </mxGeometry>
        </mxCell>
        <mxCell id="S5aGi3HF0J0l1EgHDcWB-59" value="start_i" style="endArrow=classic;html=1;rounded=0;align=right;entryX=-0.002;entryY=0.496;entryDx=0;entryDy=0;entryPerimeter=0;fontFamily=NewsGotT;" parent="1" target="S5aGi3HF0J0l1EgHDcWB-20" edge="1">
          <mxGeometry x="-1" y="5" width="50" height="50" relative="1" as="geometry">
            <mxPoint x="120" y="240" as="sourcePoint" />
            <mxPoint x="220" y="241" as="targetPoint" />
            <mxPoint x="-5" y="5" as="offset" />
          </mxGeometry>
        </mxCell>
        <mxCell id="S5aGi3HF0J0l1EgHDcWB-60" value="dl_busy_i" style="endArrow=classic;html=1;rounded=0;align=right;fontFamily=NewsGotT;" parent="1" edge="1">
          <mxGeometry x="-1" y="5" width="50" height="50" relative="1" as="geometry">
            <mxPoint x="120" y="300" as="sourcePoint" />
            <mxPoint x="660" y="255" as="targetPoint" />
            <mxPoint x="-5" y="5" as="offset" />
            <Array as="points">
              <mxPoint x="640" y="300" />
              <mxPoint x="640" y="255" />
            </Array>
          </mxGeometry>
        </mxCell>
        <mxCell id="S5aGi3HF0J0l1EgHDcWB-61" value="&lt;b&gt;stage_7_9&lt;/b&gt;" style="rounded=0;whiteSpace=wrap;html=1;fillColor=default;verticalAlign=top;fontFamily=NewsGotT;fontSize=14;" parent="1" vertex="1">
          <mxGeometry x="660" y="141" width="160" height="129" as="geometry" />
        </mxCell>
        <mxCell id="S5aGi3HF0J0l1EgHDcWB-62" value="fft_dp" style="rounded=0;whiteSpace=wrap;html=1;fontFamily=NewsGotT;" parent="1" vertex="1">
          <mxGeometry x="660" y="189" width="160" height="41" as="geometry" />
        </mxCell>
        <mxCell id="S5aGi3HF0J0l1EgHDcWB-63" value="" style="triangle;whiteSpace=wrap;html=1;fontFamily=NewsGotT;" parent="1" vertex="1">
          <mxGeometry x="660" y="151" width="10" height="10" as="geometry" />
        </mxCell>
        <mxCell id="S5aGi3HF0J0l1EgHDcWB-64" value="fft_cu" style="rounded=0;whiteSpace=wrap;html=1;fontFamily=NewsGotT;" parent="1" vertex="1">
          <mxGeometry x="660" y="230" width="160" height="40" as="geometry" />
        </mxCell>
        <mxCell id="S5aGi3HF0J0l1EgHDcWB-65" value="start" style="text;html=1;align=center;verticalAlign=middle;resizable=0;points=[];autosize=1;strokeColor=none;fillColor=none;spacing=-5;fontSize=11;fontFamily=NewsGotT;" parent="1" vertex="1">
          <mxGeometry x="660" y="233" width="25" height="15" as="geometry" />
        </mxCell>
        <mxCell id="S5aGi3HF0J0l1EgHDcWB-66" value="dl_busy" style="text;html=1;align=center;verticalAlign=middle;resizable=0;points=[];autosize=1;strokeColor=none;fillColor=none;spacing=-5;fontSize=11;fontFamily=NewsGotT;" parent="1" vertex="1">
          <mxGeometry x="660" y="248" width="40" height="15" as="geometry" />
        </mxCell>
        <mxCell id="S5aGi3HF0J0l1EgHDcWB-67" value="x_re" style="text;html=1;align=center;verticalAlign=middle;resizable=0;points=[];autosize=1;strokeColor=none;fillColor=none;spacing=-5;fontSize=11;fontFamily=NewsGotT;" parent="1" vertex="1">
          <mxGeometry x="660" y="193" width="25" height="15" as="geometry" />
        </mxCell>
        <mxCell id="S5aGi3HF0J0l1EgHDcWB-68" value="x_im" style="text;html=1;align=center;verticalAlign=middle;resizable=0;points=[];autosize=1;strokeColor=none;fillColor=none;spacing=-5;fontSize=11;fontFamily=NewsGotT;" parent="1" vertex="1">
          <mxGeometry x="660" y="208" width="25" height="15" as="geometry" />
        </mxCell>
        <mxCell id="S5aGi3HF0J0l1EgHDcWB-94" value="&lt;div align=&quot;left&quot;&gt;fft_ready_o&lt;/div&gt;" style="edgeStyle=orthogonalEdgeStyle;rounded=0;orthogonalLoop=1;jettySize=auto;html=1;align=left;fontFamily=NewsGotT;" parent="1" source="S5aGi3HF0J0l1EgHDcWB-69" edge="1">
          <mxGeometry x="1" y="-5" relative="1" as="geometry">
            <mxPoint x="920" y="240" as="targetPoint" />
            <mxPoint x="5" y="-5" as="offset" />
          </mxGeometry>
        </mxCell>
        <mxCell id="S5aGi3HF0J0l1EgHDcWB-69" value="fft_ready" style="text;html=1;align=center;verticalAlign=middle;resizable=0;points=[];autosize=1;strokeColor=none;fillColor=none;spacing=-5;fontSize=11;fontFamily=NewsGotT;" parent="1" vertex="1">
          <mxGeometry x="775" y="233" width="45" height="15" as="geometry" />
        </mxCell>
        <mxCell id="S5aGi3HF0J0l1EgHDcWB-70" value="busy" style="text;html=1;align=center;verticalAlign=middle;resizable=0;points=[];autosize=1;strokeColor=none;fillColor=none;spacing=-5;fontSize=11;fontFamily=NewsGotT;" parent="1" vertex="1">
          <mxGeometry x="795" y="248" width="25" height="15" as="geometry" />
        </mxCell>
        <mxCell id="S5aGi3HF0J0l1EgHDcWB-92" value="&lt;div&gt;X_re_o[31:0]&lt;/div&gt;" style="edgeStyle=orthogonalEdgeStyle;rounded=0;orthogonalLoop=1;jettySize=auto;html=1;align=left;fontFamily=NewsGotT;" parent="1" source="S5aGi3HF0J0l1EgHDcWB-71" edge="1">
          <mxGeometry x="1" y="5" relative="1" as="geometry">
            <mxPoint x="920" y="200" as="targetPoint" />
            <mxPoint x="5" y="5" as="offset" />
          </mxGeometry>
        </mxCell>
        <mxCell id="S5aGi3HF0J0l1EgHDcWB-71" value="X_re" style="text;html=1;align=center;verticalAlign=middle;resizable=0;points=[];autosize=1;strokeColor=none;fillColor=none;spacing=-5;fontSize=11;fontFamily=NewsGotT;" parent="1" vertex="1">
          <mxGeometry x="795" y="193" width="25" height="15" as="geometry" />
        </mxCell>
        <mxCell id="S5aGi3HF0J0l1EgHDcWB-93" value="X_im_o[31:0]" style="edgeStyle=orthogonalEdgeStyle;rounded=0;orthogonalLoop=1;jettySize=auto;html=1;align=left;fontFamily=NewsGotT;" parent="1" source="S5aGi3HF0J0l1EgHDcWB-72" edge="1">
          <mxGeometry x="1" y="-5" relative="1" as="geometry">
            <mxPoint x="920" y="215" as="targetPoint" />
            <mxPoint x="5" y="-5" as="offset" />
          </mxGeometry>
        </mxCell>
        <mxCell id="S5aGi3HF0J0l1EgHDcWB-72" value="X_im" style="text;html=1;align=center;verticalAlign=middle;resizable=0;points=[];autosize=1;strokeColor=none;fillColor=none;spacing=-5;fontSize=11;fontFamily=NewsGotT;" parent="1" vertex="1">
          <mxGeometry x="790" y="208" width="30" height="15" as="geometry" />
        </mxCell>
        <mxCell id="S5aGi3HF0J0l1EgHDcWB-73" value="rstn" style="text;html=1;align=center;verticalAlign=middle;resizable=0;points=[];autosize=1;strokeColor=none;fillColor=none;spacing=-5;fontSize=11;fontFamily=NewsGotT;" parent="1" vertex="1">
          <mxGeometry x="665" y="168" width="20" height="15" as="geometry" />
        </mxCell>
        <mxCell id="S5aGi3HF0J0l1EgHDcWB-78" value="" style="endArrow=none;html=1;rounded=0;startArrow=oval;startFill=1;startSize=3;fontFamily=NewsGotT;" parent="1" edge="1">
          <mxGeometry width="50" height="50" relative="1" as="geometry">
            <mxPoint x="430" y="100" as="sourcePoint" />
            <mxPoint x="660" y="156" as="targetPoint" />
            <Array as="points">
              <mxPoint x="650" y="100" />
              <mxPoint x="650" y="156" />
            </Array>
          </mxGeometry>
        </mxCell>
        <mxCell id="S5aGi3HF0J0l1EgHDcWB-79" value="" style="endArrow=classic;html=1;rounded=0;startArrow=oval;startFill=1;startSize=3;entryX=-0.001;entryY=0.279;entryDx=0;entryDy=0;entryPerimeter=0;fontFamily=NewsGotT;" parent="1" edge="1">
          <mxGeometry width="50" height="50" relative="1" as="geometry">
            <mxPoint x="420" y="120" as="sourcePoint" />
            <mxPoint x="660" y="177" as="targetPoint" />
            <Array as="points">
              <mxPoint x="640" y="120" />
              <mxPoint x="640" y="177" />
            </Array>
          </mxGeometry>
        </mxCell>
        <mxCell id="S5aGi3HF0J0l1EgHDcWB-81" value="" style="endArrow=classic;html=1;rounded=0;exitX=0.995;exitY=0.461;exitDx=0;exitDy=0;exitPerimeter=0;entryX=-0.004;entryY=0.49;entryDx=0;entryDy=0;entryPerimeter=0;endFill=1;fontFamily=NewsGotT;" parent="1" source="S5aGi3HF0J0l1EgHDcWB-46" target="S5aGi3HF0J0l1EgHDcWB-22" edge="1">
          <mxGeometry width="50" height="50" relative="1" as="geometry">
            <mxPoint x="415" y="195" as="sourcePoint" />
            <mxPoint x="465" y="145" as="targetPoint" />
            <Array as="points">
              <mxPoint x="620" y="255" />
              <mxPoint x="620" y="290" />
              <mxPoint x="200" y="290" />
              <mxPoint x="200" y="255" />
            </Array>
          </mxGeometry>
        </mxCell>
        <mxCell id="S5aGi3HF0J0l1EgHDcWB-83" value="" style="endArrow=classic;html=1;rounded=0;exitX=0.996;exitY=0.504;exitDx=0;exitDy=0;exitPerimeter=0;entryX=-0.001;entryY=0.498;entryDx=0;entryDy=0;entryPerimeter=0;endFill=1;fontFamily=NewsGotT;" parent="1" target="S5aGi3HF0J0l1EgHDcWB-42" edge="1">
          <mxGeometry width="50" height="50" relative="1" as="geometry">
            <mxPoint x="820" y="256" as="sourcePoint" />
            <mxPoint x="440" y="257" as="targetPoint" />
            <Array as="points">
              <mxPoint x="840" y="256" />
              <mxPoint x="840" y="280" />
              <mxPoint x="420" y="280" />
              <mxPoint x="420" y="255" />
            </Array>
          </mxGeometry>
        </mxCell>
        <mxCell id="S5aGi3HF0J0l1EgHDcWB-87" style="edgeStyle=orthogonalEdgeStyle;rounded=0;orthogonalLoop=1;jettySize=auto;html=1;entryX=0.001;entryY=0.501;entryDx=0;entryDy=0;entryPerimeter=0;fontFamily=NewsGotT;" parent="1" source="S5aGi3HF0J0l1EgHDcWB-29" target="S5aGi3HF0J0l1EgHDcWB-43" edge="1">
          <mxGeometry relative="1" as="geometry" />
        </mxCell>
        <mxCell id="S5aGi3HF0J0l1EgHDcWB-88" style="edgeStyle=orthogonalEdgeStyle;rounded=0;orthogonalLoop=1;jettySize=auto;html=1;entryX=0.002;entryY=0.499;entryDx=0;entryDy=0;entryPerimeter=0;fontFamily=NewsGotT;" parent="1" source="S5aGi3HF0J0l1EgHDcWB-30" target="S5aGi3HF0J0l1EgHDcWB-44" edge="1">
          <mxGeometry relative="1" as="geometry" />
        </mxCell>
        <mxCell id="S5aGi3HF0J0l1EgHDcWB-89" style="edgeStyle=orthogonalEdgeStyle;rounded=0;orthogonalLoop=1;jettySize=auto;html=1;entryX=0.002;entryY=0.5;entryDx=0;entryDy=0;entryPerimeter=0;fontFamily=NewsGotT;" parent="1" source="S5aGi3HF0J0l1EgHDcWB-47" target="S5aGi3HF0J0l1EgHDcWB-67" edge="1">
          <mxGeometry relative="1" as="geometry" />
        </mxCell>
        <mxCell id="S5aGi3HF0J0l1EgHDcWB-90" style="edgeStyle=orthogonalEdgeStyle;rounded=0;orthogonalLoop=1;jettySize=auto;html=1;entryX=0.001;entryY=0.499;entryDx=0;entryDy=0;entryPerimeter=0;fontFamily=NewsGotT;" parent="1" source="S5aGi3HF0J0l1EgHDcWB-48" target="S5aGi3HF0J0l1EgHDcWB-68" edge="1">
          <mxGeometry relative="1" as="geometry" />
        </mxCell>
        <mxCell id="S5aGi3HF0J0l1EgHDcWB-91" style="edgeStyle=orthogonalEdgeStyle;rounded=0;orthogonalLoop=1;jettySize=auto;html=1;entryX=0.003;entryY=0.495;entryDx=0;entryDy=0;entryPerimeter=0;fontFamily=NewsGotT;" parent="1" source="S5aGi3HF0J0l1EgHDcWB-45" target="S5aGi3HF0J0l1EgHDcWB-65" edge="1">
          <mxGeometry relative="1" as="geometry" />
        </mxCell>
      </root>
    </mxGraphModel>
  </diagram>
</mxfile>
